# xmcd
#
# Track frame offsets: 
#        150
#        18595
#        22217
#        43572
#        59022
#        75464
#        94888
#        112762
#
# Disc length: 1653 seconds
#
# Revision: 4
# Processed by: cddbd v1.5.2PL0 Copyright (c) Steve Scherf et al.
# Submitted via: ExactAudioCopyFreeDBPlugin 1.0
#
DISCID=60067308
DTITLE=Coldplay - Viva La Vida - Prospekt's March Edition [Disc 2]
DYEAR=2008
DGENRE=Alternative Rock/Pop Rock
TTITLE0=Life In Technicolor II
TTITLE1=Postcards From Far Away
TTITLE2=Glass Of Water
TTITLE3=Rainy Day
TTITLE4=Prospekt’S March - Poppyfields
TTITLE5=Lost+ (feat. Jay-Z)
TTITLE6=Lovers In Japan [Osaka Sun Mix]
TTITLE7=Now My Feet Won't Touch The Ground
EXTD=YEAR: 2008
EXTT0=
EXTT1=
EXTT2=
EXTT3=
EXTT4=
EXTT5=
EXTT6=
EXTT7=
PLAYORDER=
